<?xml version="1.0" encoding="UTF-8"?>
<!DOCTYPE svg PUBLIC "-//W3C//DTD SVG 1.1//EN" "http://www.w3.org/Graphics/SVG/1.1/DTD/svg11.dtd">
<svg xmlns="http://www.w3.org/2000/svg" version="1.1" width="512px" height="512px" style="shape-rendering:geometricPrecision; text-rendering:geometricPrecision; image-rendering:optimizeQuality; fill-rule:evenodd; clip-rule:evenodd" xmlns:xlink="http://www.w3.org/1999/xlink">
<g><path style="opacity:1" fill="#ff772f" d="M -0.5,-0.5 C 84.8333,-0.5 170.167,-0.5 255.5,-0.5C 255.5,18.8333 255.5,38.1667 255.5,57.5C 291.989,60.8299 314.822,80.1632 324,115.5C 326.917,138.014 321.084,157.848 306.5,175C 350.832,175.5 395.165,175.667 439.5,175.5C 439.667,204.835 439.5,234.169 439,263.5C 428.577,264.652 418.077,264.819 407.5,264C 405.289,254.864 401.622,246.364 396.5,238.5C 402.5,238.5 408.5,238.5 414.5,238.5C 414.5,225.833 414.5,213.167 414.5,200.5C 307.833,200.5 201.167,200.5 94.5,200.5C 94.5,213.167 94.5,225.833 94.5,238.5C 130.167,238.5 165.833,238.5 201.5,238.5C 202.117,238.611 202.617,238.944 203,239.5C 203.5,302.166 203.667,364.832 203.5,427.5C 216.833,427.5 230.167,427.5 243.5,427.5C 243.333,406.831 243.5,386.164 244,365.5C 250.41,364.522 256.91,364.189 263.5,364.5C 263.5,385.5 263.5,406.5 263.5,427.5C 271.5,427.5 279.5,427.5 287.5,427.5C 287.5,436.167 287.5,444.833 287.5,453.5C 276.833,453.5 266.167,453.5 255.5,453.5C 255.5,472.833 255.5,492.167 255.5,511.5C 170.167,511.5 84.8333,511.5 -0.5,511.5C -0.5,340.833 -0.5,170.167 -0.5,-0.5 Z"/></g>
<g><path style="opacity:1" fill="#fffefe" d="M 255.5,-0.5 C 340.833,-0.5 426.167,-0.5 511.5,-0.5C 511.5,170.167 511.5,340.833 511.5,511.5C 426.167,511.5 340.833,511.5 255.5,511.5C 255.5,492.167 255.5,472.833 255.5,453.5C 266.167,453.5 276.833,453.5 287.5,453.5C 287.5,444.833 287.5,436.167 287.5,427.5C 279.5,427.5 271.5,427.5 263.5,427.5C 263.5,406.5 263.5,385.5 263.5,364.5C 256.91,364.189 250.41,364.522 244,365.5C 243.5,386.164 243.333,406.831 243.5,427.5C 230.167,427.5 216.833,427.5 203.5,427.5C 203.667,364.832 203.5,302.166 203,239.5C 202.617,238.944 202.117,238.611 201.5,238.5C 166.337,237.502 131.004,237.168 95.5,237.5C 95.5,225.5 95.5,213.5 95.5,201.5C 201.5,201.5 307.5,201.5 413.5,201.5C 413.5,213.5 413.5,225.5 413.5,237.5C 407.642,237.178 401.975,237.511 396.5,238.5C 401.622,246.364 405.289,254.864 407.5,264C 418.077,264.819 428.577,264.652 439,263.5C 439.5,234.169 439.667,204.835 439.5,175.5C 395.165,175.667 350.832,175.5 306.5,175C 321.084,157.848 326.917,138.014 324,115.5C 314.822,80.1632 291.989,60.8299 255.5,57.5C 255.5,38.1667 255.5,18.8333 255.5,-0.5 Z"/></g>
<g><path style="opacity:1" fill="#fffefd" d="M 244.5,83.5 C 273.415,81.0222 291.582,93.6889 299,121.5C 298.679,155.488 281.512,172.321 247.5,172C 219.774,164.409 207.608,146.242 211,117.5C 216.341,100.326 227.508,88.9925 244.5,83.5 Z"/></g>
<g><path style="opacity:1" fill="#ffe3d4" d="M 396.5,238.5 C 401.975,237.511 407.642,237.178 413.5,237.5C 413.5,225.5 413.5,213.5 413.5,201.5C 307.5,201.5 201.5,201.5 95.5,201.5C 95.5,213.5 95.5,225.5 95.5,237.5C 131.004,237.168 166.337,237.502 201.5,238.5C 165.833,238.5 130.167,238.5 94.5,238.5C 94.5,225.833 94.5,213.167 94.5,200.5C 201.167,200.5 307.833,200.5 414.5,200.5C 414.5,213.167 414.5,225.833 414.5,238.5C 408.5,238.5 402.5,238.5 396.5,238.5 Z"/></g>
<g><path style="opacity:1" fill="#ff7730" d="M 332.5,231.5 C 361.365,228.563 379.865,240.897 388,268.5C 390.104,287.448 383.604,302.615 368.5,314C 392.831,314.5 417.164,314.667 441.5,314.5C 441.817,323.085 441.483,331.585 440.5,340C 419.836,340.5 399.169,340.667 378.5,340.5C 378.667,377.835 378.5,415.168 378,452.5C 369.667,453.833 361.333,453.833 353,452.5C 352.5,436.837 352.333,421.17 352.5,405.5C 345.91,405.189 339.41,405.522 333,406.5C 332.5,422.163 332.333,437.83 332.5,453.5C 324.248,453.816 316.081,453.482 308,452.5C 307.5,415.168 307.333,377.835 307.5,340.5C 286.497,340.667 265.497,340.5 244.5,340C 243.352,331.912 243.185,323.746 244,315.5C 268.428,314.672 292.928,314.172 317.5,314C 302.064,302.383 295.564,286.883 298,267.5C 303.255,249.414 314.755,237.414 332.5,231.5 Z"/></g>
</svg>
